# xmcd CD database file
# Copyright (C) 1993-1997  Ti Kan
#
# Track frame offsets:
#	150
#	13772
#	30262
#	51200
#	71437
#	115825
#	133287
#	158500
#	172125
#	199725
#	212625
#
# Disc length: 3203 seconds
#
# Revision: 1
# Processed by: cddbd v1.4b41PL1 Copyright (c) Steve Scherf et al.
# Submitted via: xmcd 2.1 PL2
#
DISCID=950c810b
DTITLE=Mojo Blues Band - Midnight In Swampland - live
DYEAR=1900
DGENRE=
TTITLE0=Rosa Lee
TTITLE1=Banana Peel Slide
TTITLE2=Bring It On Home
TTITLE3=Lousiana Boogie
TTITLE4=Born In '58
TTITLE5=Shame, Shame, Shame
TTITLE6=Midnight In Swampland
TTITLE7=Soundborn Boogie
TTITLE8=Hell On Earth
TTITLE9=Harmoinca Blow Up
TTITLE10=Cajun Dreams
EXTD=
EXTT0=
EXTT1=
EXTT2=
EXTT3=
EXTT4=
EXTT5=
EXTT6=
EXTT7=
EXTT8=
EXTT9=
EXTT10=
PLAYORDER=
